<?xml version="1.0" encoding="UTF-8"?>
<svg fill="#f2f2f2" version="1.1" viewBox="0 0 18.5 18.5" xmlns="http://www.w3.org/2000/svg">
<path class="cls-1" d="m13.084 12.14a5.52 5.52 0 0 0-1.87-2.42 9.68 9.68 0 0 1 4.16-3 4.36 4.36 0 0 0 3-3.45 2 2 0 0 0-1.16-2.12l-0.54-0.25-0.26 0.53a7.52 7.52 0 0 1-3.07 3 8.23 8.23 0 0 0-2.78 2h-0.07c-0.52-0.23-1.89-1-1.94-2a1.59 1.59 0 0 0-1.07-1.45 3.62 3.62 0 0 0-3.68 0.74l-1 0.86 1.28 0.18a2.24 2.24 0 0 1 1.64 1.2 3.44 3.44 0 0 0 1.18 1.71 8.71 8.71 0 0 1-3.59 2.62 5.15 5.15 0 0 0-2.88 2.92 3.11 3.11 0 0 0 0 2.79l0.51 0.9 0.53-0.89a9.32 9.32 0 0 1 3.23-3.11 8.45 8.45 0 0 0 2.75-2 4.93 4.93 0 0 1 2.36 3.33 3.94 3.94 0 0 0 2.69 3 5.12 5.12 0 0 0 1.89 0.37 4.42 4.42 0 0 0 3-1.13l0.75-0.68-1-0.34s-2.95-1.1-4.06-3.31zm-3.48-2.45a1.9 1.9 0 0 1-1.6 0.21 0.58 0.58 0 0 1-0.24-0.14 0.61 0.61 0 0 1-0.21-0.24v-0.1a1 1 0 0 1 0-0.67 1.81 1.81 0 0 1 0.43-0.6 0.76 0.76 0 0 1 0.1-0.18 2.11 2.11 0 0 1 0.45-0.31 1.93 1.93 0 0 1 1.55-0.19 0.61 0.61 0 0 1 0.23 0.11 0.71 0.71 0 0 1 0.28 0.29 0.88 0.88 0 0 1 0 0.73 1.92 1.92 0 0 1-0.48 0.65 2.15 2.15 0 0 1-0.51 0.44z" fill="#f2f2f2"/>
</svg>
