<?xml version="1.0" encoding="UTF-8"?>
<svg version="1.1" viewBox="0 0 40 20" xmlns="http://www.w3.org/2000/svg" fill="#bebebe">
<path d="m0 1.5c0-0.43333 0.14167-0.79167 0.425-1.075s0.64167-0.425 1.075-0.425h33.8c0.43333 0 0.79167 0.14167 1.075 0.425s0.425 0.64167 0.425 1.075v4.5h1.7c0.43333 0 0.79167 0.14167 1.075 0.425s0.425 0.64167 0.425 1.075v5c0 0.43333-0.14167 0.79167-0.425 1.075s-0.64167 0.425-1.075 0.425h-1.7v4.5c0 0.43333-0.14167 0.79167-0.425 1.075s-0.64167 0.425-1.075 0.425h-33.8c-0.43333 0-0.79167-0.14167-1.075-0.425s-0.425-0.64167-0.425-1.075zm23.52 1.5v14h10.28v-14z"/>
</svg>
