<?xml version="1.0" encoding="UTF-8"?>
<svg viewBox="0 0 48 48" xmlns="http://www.w3.org/2000/svg">
<path d="m5.5 36q-1.45 0-2.475-1.025t-1.025-2.475 1.025-2.475 2.475-1.025q0.25 0 0.5 0.025t0.65 0.125l10-10q-0.1-0.4-0.125-0.65t-0.025-0.5q0-1.45 1.025-2.475t2.475-1.025 2.475 1.025 1.025 2.475q0 0.1-0.15 1.15l5.5 5.5q0.4-0.1 0.65-0.125t0.5-0.025 0.5 0.025 0.65 0.125l8-8q-0.1-0.4-0.125-0.65t-0.025-0.5q0-1.45 1.025-2.475t2.475-1.025 2.475 1.025 1.025 2.475-1.025 2.475-2.475 1.025q-0.25 0-0.5-0.025t-0.65-0.125l-8 8q0.1 0.4 0.125 0.65t0.025 0.5q0 1.45-1.025 2.475t-2.475 1.025-2.475-1.025-1.025-2.475q0-0.25 0.025-0.5t0.125-0.65l-5.5-5.5q-0.4 0.1-0.65 0.125t-0.5 0.025q-0.1 0-1.15-0.15l-10 10q0.1 0.4 0.125 0.65t0.025 0.5q0 1.45-1.025 2.475t-2.475 1.025z"/>
</svg>
