<?xml version="1.0" encoding="UTF-8"?>
<svg viewBox="0 0 48 48" xmlns="http://www.w3.org/2000/svg" fill="#ff6384">
<path d="m31.2 28.3q0.65 0.35 1.3 0.075t0.9-0.975q0.3-0.85 0.45-1.7t0.15-1.7q0-1.9-0.725-3.775t-2.175-3.325-3.275-2.15-3.725-0.7l0.9-0.9q0.45-0.45 0.425-1.05t-0.475-1.05-1.05-0.45-1.05 0.45l-4.1 4.05q-0.25 0.25-0.25 0.55t0.25 0.55l4.1 4.05q0.45 0.4 1.05 0.425t1.05-0.425 0.45-1.05-0.45-1.05l-1.15-1.15q1.35 0 2.75 0.525t2.4 1.525 1.525 2.3 0.525 2.6q0 0.65-0.1 1.25t-0.35 1.2q-0.25 0.55-0.075 1.1t0.725 0.8zm-8.15 8.65q0.45 0.45 1.05 0.45t1.05-0.45l4.1-4.05q0.25-0.25 0.25-0.55t-0.25-0.55l-4.1-4.05q-0.45-0.4-1.05-0.425t-1.05 0.425-0.45 1.05 0.45 1.05l1.1 1.1q-1.4 0.05-2.725-0.45t-2.375-1.55q-1-1-1.525-2.3t-0.525-2.6q0-0.6 0.075-1.225t0.325-1.175q0.25-0.6 0.075-1.125t-0.725-0.825q-0.65-0.35-1.275-0.075t-0.875 0.875q-0.3 0.85-0.45 1.725t-0.15 1.775q0 1.9 0.75 3.75t2.2 3.3 3.25 2.175 3.7 0.775l-0.85 0.85q-0.45 0.45-0.45 1.05t0.45 1.05zm0.95 7.05q-4.25 0-7.9-1.525t-6.35-4.225-4.225-6.35-1.525-7.9q0-4.2 1.525-7.85t4.225-6.35 6.35-4.25 7.9-1.55q4.2 0 7.85 1.55t6.35 4.25 4.25 6.35 1.55 7.85q0 4.25-1.55 7.9t-4.25 6.35-6.35 4.225-7.85 1.525z"/>
</svg>
