<?xml version="1.0" encoding="UTF-8"?>
<svg viewBox="0 0 48 48" xmlns="http://www.w3.org/2000/svg" fill="#fff">
<path d="m27.3 44h-6.6q-0.55 0-0.975-0.35t-0.525-0.9l-0.8-5.05q-0.95-0.35-2-0.95t-1.85-1.25l-4.65 2.15q-0.55 0.25-1.1 0.075t-0.85-0.725l-3.3-5.85q-0.3-0.5-0.15-1.05t0.6-0.9l4.3-3.15q-0.1-0.45-0.125-1.025t-0.025-1.025 0.025-1.025 0.125-1.025l-4.3-3.15q-0.45-0.35-0.6-0.9t0.15-1.05l3.3-5.85q0.3-0.55 0.85-0.725t1.1 0.075l4.65 2.15q0.8-0.65 1.85-1.25t2-0.9l0.8-5.1q0.1-0.55 0.525-0.9t0.975-0.35h6.6q0.55 0 0.975 0.35t0.525 0.9l0.8 5.05q0.95 0.35 2.025 0.925t1.825 1.275l4.65-2.15q0.55-0.25 1.1-0.075t0.85 0.725l3.3 5.8q0.3 0.5 0.175 1.075t-0.625 0.925l-4.3 3.05q0.1 0.5 0.125 1.075t0.025 1.075-0.025 1.05-0.125 1.05l4.3 3.1q0.45 0.35 0.6 0.9t-0.15 1.05l-3.3 5.85q-0.3 0.55-0.85 0.725t-1.1-0.075l-4.65-2.15q-0.8 0.65-1.825 1.275t-2.025 0.925l-0.8 5.05q-0.1 0.55-0.525 0.9t-0.975 0.35zm-3.3-13.5q2.7 0 4.6-1.9t1.9-4.6-1.9-4.6-4.6-1.9-4.6 1.9-1.9 4.6 1.9 4.6 4.6 1.9z"/>
</svg>
