<?xml version="1.0" encoding="UTF-8"?>
<svg viewBox="0 0 48 48" xmlns="http://www.w3.org/2000/svg" fill="#fff">
<path d="m25.6 23.3 5.75 5.65q0.45 0.45 0.45 1.075t-0.45 1.075-1.05 0.45-1.05-0.45l-6.2-6.1q-0.25-0.25-0.35-0.525t-0.1-0.575v-8.55q0-0.65 0.425-1.075t1.075-0.425 1.075 0.425 0.425 1.075zm-1.75 18.7q-7 0-11.875-4.5t-5.825-11.25q-0.1-0.7 0.275-1.2t1.075-0.55q0.6-0.05 1.05 0.375t0.55 1.025q0.85 5.6 4.9 9.35t9.85 3.75q6.35 0 10.75-4.45t4.4-10.8q0-6.2-4.45-10.475t-10.7-4.275q-3.4 0-6.375 1.55t-5.175 4.1h3.75q0.65 0 1.075 0.425t0.425 1.075-0.425 1.075-1.075 0.425h-7.45q-0.65 0-1.075-0.425t-0.425-1.075v-7.4q0-0.65 0.425-1.075t1.075-0.425 1.075 0.425 0.425 1.075v3.8q2.6-3.05 6.175-4.8t7.575-1.75q3.75 0 7.05 1.4t5.775 3.825 3.9 5.675 1.425 7-1.425 7.05-3.9 5.75-5.775 3.875-7.05 1.425z"/>
</svg>
