<?xml version="1.0" encoding="UTF-8"?>
<svg version="1.1" viewBox="0 0 48 48" xmlns="http://www.w3.org/2000/svg" fill="#9966ff">
<path d="m21.95 25.6-3.2 3.25q-0.4 0.4-0.375 1.025t0.425 1.025q0.45 0.45 1.05 0.45t1.05-0.45l5.75-5.7q0.45-0.4 0.425-1.025t-0.425-1.075l-5.8-5.85q-0.4-0.4-1.025-0.375t-1.025 0.425q-0.45 0.45-0.45 1.05t0.45 1.05l3.15 3.2h-8.5q-0.6 0-1.025 0.45t-0.425 1.05q0 0.65 0.425 1.075t1.075 0.425zm12.05 6.9v-17.05q0-0.6-0.45-1.025t-1.05-0.425q-0.65 0-1.075 0.425t-0.425 1.075v17.05q0 0.6 0.45 1.025t1.05 0.425q0.65 0 1.075-0.425t0.425-1.075zm10-8.5q0 4.25-1.525 7.9t-4.225 6.35-6.35 4.225-7.9 1.525q-4.2 0-7.85-1.525t-6.35-4.225-4.25-6.35-1.55-7.9q0-4.2 1.55-7.85t4.25-6.35 6.35-4.25 7.85-1.55q4.25 0 7.9 1.55t6.35 4.25 4.225 6.35 1.525 7.85z"/>
</svg>
