<?xml version="1.0" encoding="UTF-8"?>
<svg version="1.1" viewBox="0 0 40 20" xmlns="http://www.w3.org/2000/svg" fill="#bebebe">
<path d="m35.301 20c0.43333 0 0.79089-0.14245 1.0742-0.42578 0.28333-0.28333 0.42578-0.64089 0.42578-1.0742v-4.5h1.6992c0.43333 0 0.79089-0.14245 1.0742-0.42578 0.28333-0.28333 0.42578-0.64089 0.42578-1.0742v-5c0-0.43333-0.14245-0.79089-0.42578-1.0742-0.28333-0.28333-0.64089-0.42578-1.0742-0.42578h-1.6992v-4.5c0-0.43333-0.14245-0.79089-0.42578-1.0742-0.28333-0.28333-0.64089-0.42578-1.0742-0.42578h-33.801c-0.43333 0-0.79089 0.14245-1.0742 0.42578-0.28333 0.28333-0.42578 0.64089-0.42578 1.0742v17c0 0.43333 0.14245 0.79089 0.42578 1.0742 0.28333 0.28333 0.64089 0.42578 1.0742 0.42578h33.801zm-16.539-5.1816c-0.125 0.0042-0.25338-0.02708-0.38672-0.09375l-8.9492-4.7988c-0.3667-0.16667-0.49167-0.44284-0.375-0.82617s0.37344-0.57422 0.77344-0.57422h6.7012v-2.5996c0-0.26667 0.11628-0.475 0.34961-0.625s0.48333-0.15872 0.75-0.02539l8.9492 4.7988c0.3667 0.16667 0.49167 0.44284 0.375 0.82617s-0.37344 0.57422-0.77344 0.57422h-6.7012v2.5996c0 0.26667-0.11628 0.475-0.34961 0.625-0.11667 0.075-0.23828 0.11497-0.36328 0.11914z"/>
</svg>
